<?xml version="1.0" encoding="UTF-8"?>
<!DOCTYPE svg PUBLIC "-//W3C//DTD SVG 1.1//EN" "http://www.w3.org/Graphics/SVG/1.1/DTD/svg11.dtd">
<svg xmlns="http://www.w3.org/2000/svg" version="1.1" width="292px" height="175px" style="shape-rendering:geometricPrecision; text-rendering:geometricPrecision; image-rendering:optimizeQuality; fill-rule:evenodd; clip-rule:evenodd" xmlns:xlink="http://www.w3.org/1999/xlink">
<g><path style="opacity:0.984" fill="#7b6c59" d="M 121.5,32.5 C 117.321,31.0234 113.321,31.3568 109.5,33.5C 111.1,31.0612 113.433,29.7279 116.5,29.5C 118.869,29.5953 120.536,30.5953 121.5,32.5 Z"/></g>
<g><path style="opacity:0.976" fill="#877761" d="M 177.5,34.5 C 174.766,31.8574 171.433,30.8574 167.5,31.5C 171.963,28.4512 175.297,29.4512 177.5,34.5 Z"/></g>
<g><path style="opacity:0.98" fill="#a08366" d="M 121.5,32.5 C 122.5,32.8333 123.167,33.5 123.5,34.5C 123.795,36.7354 123.461,38.7354 122.5,40.5C 119.05,32.9677 115.05,32.6344 110.5,39.5C 110.5,38.5 110.5,37.5 110.5,36.5C 109.5,36.5 108.5,36.5 107.5,36.5C 108.167,35.5 108.833,34.5 109.5,33.5C 113.321,31.3568 117.321,31.0234 121.5,32.5 Z"/></g>
<g><path style="opacity:0.886" fill="#b8a696" d="M 143.5,37.5 C 143.657,36.1266 143.49,34.7932 143,33.5C 142.31,32.2617 141.81,32.2617 141.5,33.5C 141.167,33.5 140.833,33.5 140.5,33.5C 140.196,32.8501 139.863,32.1835 139.5,31.5C 141.045,30.5481 142.712,30.2148 144.5,30.5C 144.802,33.0593 144.468,35.3926 143.5,37.5 Z"/></g>
<g><path style="opacity:0.908" fill="#a5968a" d="M 151.5,31.5 C 150.833,31.5 150.167,31.5 149.5,31.5C 147.656,33.2789 146.99,35.6122 147.5,38.5C 147.167,38.5 146.833,38.5 146.5,38.5C 145.527,36.0521 145.194,33.3854 145.5,30.5C 147.735,30.2053 149.735,30.5386 151.5,31.5 Z"/></g>
<g><path style="opacity:0.953" fill="#a08264" d="M 156.5,36.5 C 155.71,35.3915 155.21,34.0581 155,32.5C 154.179,39.3464 154.346,46.013 155.5,52.5C 155.785,54.288 155.452,55.9547 154.5,57.5C 153.817,57.1373 153.15,56.8039 152.5,56.5C 153.437,48.555 153.77,40.555 153.5,32.5C 154.209,31.596 155.209,31.2627 156.5,31.5C 156.5,33.1667 156.5,34.8333 156.5,36.5 Z"/></g>
<g><path style="opacity:0.451" fill="#77684f" d="M 157.5,44.5 C 156.527,42.0521 156.194,39.3854 156.5,36.5C 156.5,34.8333 156.5,33.1667 156.5,31.5C 155.209,31.2627 154.209,31.596 153.5,32.5C 152.957,32.44 152.624,32.1067 152.5,31.5C 154.045,30.5481 155.712,30.2148 157.5,30.5C 157.5,35.1667 157.5,39.8333 157.5,44.5 Z"/></g>
<g><path style="opacity:0.89" fill="#aa9a85" d="M 140.5,33.5 C 140.833,33.5 141.167,33.5 141.5,33.5C 141.5,38.8333 141.5,44.1667 141.5,49.5C 140.624,49.6309 139.957,49.2975 139.5,48.5C 140.256,43.3508 140.589,38.3508 140.5,33.5 Z"/></g>
<g><path style="opacity:0.933" fill="#947a5f" d="M 167.5,31.5 C 171.433,30.8574 174.766,31.8574 177.5,34.5C 178.167,34.5 178.5,34.8333 178.5,35.5C 178.083,38.1589 177.083,40.4922 175.5,42.5C 174.824,40.1409 173.991,37.8076 173,35.5C 171.989,34.6634 170.822,34.33 169.5,34.5C 168.603,35.5981 167.77,35.5981 167,34.5C 166.5,47.1623 166.333,59.8289 166.5,72.5C 166.5,74.5 166.5,76.5 166.5,78.5C 166.813,82.0419 166.479,85.3752 165.5,88.5C 165.333,69.8304 165.5,51.1637 166,32.5C 166.383,31.944 166.883,31.6107 167.5,31.5 Z"/></g>
<g><path style="opacity:0.931" fill="#977c68" d="M 133.5,31.5 C 134.568,30.5655 135.901,30.2322 137.5,30.5C 137.524,36.857 137.19,43.1903 136.5,49.5C 136.167,49.5 135.833,49.5 135.5,49.5C 136.12,43.0738 135.453,37.0738 133.5,31.5 Z"/></g>
<g><path style="opacity:0.907" fill="#b7956d" d="M 149.5,31.5 C 149.829,37.2055 149.495,42.8722 148.5,48.5C 147.513,45.2317 147.18,41.8984 147.5,38.5C 146.99,35.6122 147.656,33.2789 149.5,31.5 Z"/></g>
<g><path style="opacity:0.951" fill="#947b5e" d="M 123.5,34.5 C 125.539,35.911 126.539,37.911 126.5,40.5C 124.5,40.5 123.5,41.5 123.5,43.5C 122.596,42.791 122.263,41.791 122.5,40.5C 123.461,38.7354 123.795,36.7354 123.5,34.5 Z"/></g>
<g><path style="opacity:0.88" fill="#b08f6f" d="M 143.5,37.5 C 143.395,41.5483 143.728,45.5483 144.5,49.5C 143.5,49.5 142.5,49.5 141.5,49.5C 141.5,44.1667 141.5,38.8333 141.5,33.5C 141.81,32.2617 142.31,32.2617 143,33.5C 143.49,34.7932 143.657,36.1266 143.5,37.5 Z"/></g>
<g><path style="opacity:0.877" fill="#ad9783" d="M 149.5,31.5 C 150.167,31.5 150.833,31.5 151.5,31.5C 150.545,37.4093 150.211,43.4093 150.5,49.5C 148.833,49.5 147.167,49.5 145.5,49.5C 146.114,45.8648 146.448,42.1981 146.5,38.5C 146.833,38.5 147.167,38.5 147.5,38.5C 147.18,41.8984 147.513,45.2317 148.5,48.5C 149.495,42.8722 149.829,37.2055 149.5,31.5 Z"/></g>
<g><path style="opacity:0.98" fill="#968068" d="M 178.5,35.5 C 180.069,38.8909 180.736,42.2242 180.5,45.5C 177.956,42.6935 176.956,43.3601 177.5,47.5C 176.463,46.0697 175.796,44.403 175.5,42.5C 177.083,40.4922 178.083,38.1589 178.5,35.5 Z"/></g>
<g><path style="opacity:0.929" fill="#b59875" d="M 169.5,34.5 C 169.588,44.0166 169.588,53.6833 169.5,63.5C 169.167,63.5 168.833,63.5 168.5,63.5C 168.666,58.1563 168.499,52.8229 168,47.5C 167.829,56.0101 167.329,64.3434 166.5,72.5C 166.333,59.8289 166.5,47.1623 167,34.5C 167.77,35.5981 168.603,35.5981 169.5,34.5 Z"/></g>
<g><path style="opacity:0.961" fill="#b6976c" d="M 156.5,36.5 C 156.194,39.3854 156.527,42.0521 157.5,44.5C 157.5,46.5 157.5,48.5 157.5,50.5C 156.833,51.1667 156.167,51.8333 155.5,52.5C 154.346,46.013 154.179,39.3464 155,32.5C 155.21,34.0581 155.71,35.3915 156.5,36.5 Z"/></g>
<g><path style="opacity:0.984" fill="#ac8c6e" d="M 180.5,45.5 C 180.5,46.1667 180.5,46.8333 180.5,47.5C 179.833,49.5 179.167,51.5 178.5,53.5C 178.167,51.5 177.833,49.5 177.5,47.5C 176.956,43.3601 177.956,42.6935 180.5,45.5 Z"/></g>
<g><path style="opacity:0.937" fill="#b1916d" d="M 107.5,36.5 C 108.5,36.5 109.5,36.5 110.5,36.5C 110.5,37.5 110.5,38.5 110.5,39.5C 109.883,39.6107 109.383,39.944 109,40.5C 108.824,43.8818 108.324,47.2152 107.5,50.5C 106.817,50.1373 106.15,49.8039 105.5,49.5C 105.054,44.9289 105.72,40.5956 107.5,36.5 Z"/></g>
<g><path style="opacity:0.953" fill="#b9966e" d="M 126.5,40.5 C 126.5,40.8333 126.5,41.1667 126.5,41.5C 126.892,44.7216 126.392,47.7216 125,50.5C 124.722,49.5842 124.222,48.9175 123.5,48.5C 123.5,46.8333 123.5,45.1667 123.5,43.5C 123.5,41.5 124.5,40.5 126.5,40.5 Z"/></g>
<g><path style="opacity:0.973" fill="#b79573" d="M 133.5,31.5 C 135.453,37.0738 136.12,43.0738 135.5,49.5C 135.631,50.3764 135.298,51.0431 134.5,51.5C 133.505,46.2079 133.172,40.8746 133.5,35.5C 133.5,34.1667 133.5,32.8333 133.5,31.5 Z"/></g>
<g><path style="opacity:0.965" fill="#8d755f" d="M 126.5,41.5 C 128.64,47.154 127.64,52.4873 123.5,57.5C 123.357,55.7376 123.691,54.0709 124.5,52.5C 124.043,51.7025 123.376,51.3691 122.5,51.5C 122.263,50.209 122.596,49.209 123.5,48.5C 124.222,48.9175 124.722,49.5842 125,50.5C 126.392,47.7216 126.892,44.7216 126.5,41.5 Z"/></g>
<g><path style="opacity:0.957" fill="#937d5f" d="M 110.5,39.5 C 108.997,44.6358 109.33,49.6358 111.5,54.5C 109.952,54.8212 109.285,55.8212 109.5,57.5C 107.127,55.4208 105.794,52.7541 105.5,49.5C 106.15,49.8039 106.817,50.1373 107.5,50.5C 108.324,47.2152 108.824,43.8818 109,40.5C 109.383,39.944 109.883,39.6107 110.5,39.5 Z"/></g>
<g><path style="opacity:0.976" fill="#88715b" d="M 133.5,35.5 C 133.172,40.8746 133.505,46.2079 134.5,51.5C 135.298,51.0431 135.631,50.3764 135.5,49.5C 135.833,49.5 136.167,49.5 136.5,49.5C 136.5,50.8333 136.5,52.1667 136.5,53.5C 134.824,54.1834 134.157,55.5168 134.5,57.5C 133.778,57.0825 133.278,56.4158 133,55.5C 132.179,48.6536 132.346,41.987 133.5,35.5 Z"/></g>
<g><path style="opacity:0.918" fill="#b99671" d="M 180.5,47.5 C 181.566,49.7014 182.233,52.0347 182.5,54.5C 181.5,54.5 180.5,54.5 179.5,54.5C 178.833,54.5 178.5,54.1667 178.5,53.5C 179.167,51.5 179.833,49.5 180.5,47.5 Z"/></g>
<g><path style="opacity:0.951" fill="#a78b6d" d="M 136.5,53.5 C 137.803,55.1423 139.136,56.8089 140.5,58.5C 140.409,68.277 140.409,78.277 140.5,88.5C 139.89,90.8503 139.556,90.517 139.5,87.5C 139.666,79.16 139.5,70.8267 139,62.5C 136.8,61.3492 135.3,59.6825 134.5,57.5C 134.157,55.5168 134.824,54.1834 136.5,53.5 Z"/></g>
<g><path style="opacity:0.965" fill="#957a5e" d="M 180.5,45.5 C 182.267,47.7916 183.267,50.4582 183.5,53.5C 183.5,54.8333 183.5,56.1667 183.5,57.5C 182.624,57.3691 181.957,57.7025 181.5,58.5C 182.55,59.4288 182.55,60.0954 181.5,60.5C 180.262,58.7857 179.595,56.7857 179.5,54.5C 180.5,54.5 181.5,54.5 182.5,54.5C 182.233,52.0347 181.566,49.7014 180.5,47.5C 180.5,46.8333 180.5,46.1667 180.5,45.5 Z"/></g>
<g><path style="opacity:0.937" fill="#92795e" d="M 122.5,51.5 C 123.376,51.3691 124.043,51.7025 124.5,52.5C 123.691,54.0709 123.357,55.7376 123.5,57.5C 122.587,63.4406 122.254,69.4406 122.5,75.5C 121.833,69.9861 121.167,64.3195 120.5,58.5C 119.893,58.6236 119.56,58.9569 119.5,59.5C 119.167,59.5 118.833,59.5 118.5,59.5C 119.304,56.5578 120.638,53.8911 122.5,51.5 Z"/></g>
<g><path style="opacity:0.976" fill="#9c7f64" d="M 157.5,50.5 C 158.46,55.5717 156.46,59.2383 151.5,61.5C 151.158,60.6618 150.492,60.3284 149.5,60.5C 149.158,59.6618 148.492,59.3284 147.5,59.5C 148.965,58.2632 150.632,57.2632 152.5,56.5C 153.15,56.8039 153.817,57.1373 154.5,57.5C 155.452,55.9547 155.785,54.288 155.5,52.5C 156.167,51.8333 156.833,51.1667 157.5,50.5 Z"/></g>
<g><path style="opacity:0.941" fill="#937b64" d="M 111.5,54.5 C 112.966,55.347 113.8,56.6803 114,58.5C 114.821,65.3464 114.654,72.013 113.5,78.5C 113.83,72.1318 113.496,65.7985 112.5,59.5C 111.833,62.6417 111.166,65.6417 110.5,68.5C 110.577,64.7852 110.244,61.1185 109.5,57.5C 109.285,55.8212 109.952,54.8212 111.5,54.5 Z"/></g>
<g><path style="opacity:0.941" fill="#816d59" d="M 183.5,53.5 C 184.264,55.7397 185.098,58.0731 186,60.5C 186.801,63.367 186.634,66.0336 185.5,68.5C 185.753,64.5854 185.087,60.9187 183.5,57.5C 183.5,56.1667 183.5,54.8333 183.5,53.5 Z"/></g>
<g><path style="opacity:0.946" fill="#87725e" d="M 118.5,59.5 C 118.833,59.5 119.167,59.5 119.5,59.5C 119.5,66.1667 119.5,72.8333 119.5,79.5C 120.162,83.4659 120.495,87.4659 120.5,91.5C 118.889,82.5546 117.889,73.388 117.5,64C 117.605,62.4085 117.939,60.9085 118.5,59.5 Z"/></g>
<g><path style="opacity:0.957" fill="#b49471" d="M 183.5,57.5 C 185.087,60.9187 185.753,64.5854 185.5,68.5C 185.5,68.8333 185.5,69.1667 185.5,69.5C 184.5,69.5 183.5,69.5 182.5,69.5C 182.5,68.5 182.5,67.5 182.5,66.5C 182.167,64.5 181.833,62.5 181.5,60.5C 182.55,60.0954 182.55,59.4288 181.5,58.5C 181.957,57.7025 182.624,57.3691 183.5,57.5 Z"/></g>
<g><path style="opacity:0.979" fill="#b89473" d="M 113.5,78.5 C 113.5,79.8333 113.5,81.1667 113.5,82.5C 113.167,82.5 112.833,82.5 112.5,82.5C 112.633,79.075 111.967,78.7417 110.5,81.5C 110.5,78.5 110.5,75.5 110.5,72.5C 110.5,71.1667 110.5,69.8333 110.5,68.5C 111.166,65.6417 111.833,62.6417 112.5,59.5C 113.496,65.7985 113.83,72.1318 113.5,78.5 Z"/></g>
<g><path style="opacity:0.917" fill="#b39678" d="M 147.5,59.5 C 148.492,59.3284 149.158,59.6618 149.5,60.5C 148.507,69.3178 148.173,78.3178 148.5,87.5C 148.5,87.8333 148.5,88.1667 148.5,88.5C 148.167,88.5 147.833,88.5 147.5,88.5C 147.5,78.8333 147.5,69.1667 147.5,59.5 Z"/></g>
<g><path style="opacity:0.949" fill="#b9956e" d="M 168.5,63.5 C 168.666,70.175 168.5,76.8417 168,83.5C 167.802,81.6183 167.302,79.9516 166.5,78.5C 166.5,76.5 166.5,74.5 166.5,72.5C 167.329,64.3434 167.829,56.0101 168,47.5C 168.499,52.8229 168.666,58.1563 168.5,63.5 Z"/></g>
<g><path style="opacity:0.431" fill="#8d7967" d="M 151.5,61.5 C 152.126,70.4507 152.126,79.4507 151.5,88.5C 151.167,88.5 150.833,88.5 150.5,88.5C 150.5,80.1667 150.5,71.8333 150.5,63.5C 150.328,62.5084 150.662,61.8417 151.5,61.5 Z"/></g>
<g><path style="opacity:0.929" fill="#b9946f" d="M 140.5,58.5 C 141.492,58.3284 142.158,58.6618 142.5,59.5C 143.14,69.5578 142.473,79.2245 140.5,88.5C 140.409,78.277 140.409,68.277 140.5,58.5 Z"/></g>
<g><path style="opacity:0.956" fill="#ba946c" d="M 149.5,60.5 C 150.492,60.3284 151.158,60.6618 151.5,61.5C 150.662,61.8417 150.328,62.5084 150.5,63.5C 149.833,71.5 149.167,79.5 148.5,87.5C 148.173,78.3178 148.507,69.3178 149.5,60.5 Z"/></g>
<g><path style="opacity:0.976" fill="#b79675" d="M 122.5,75.5 C 122.5,76.8333 122.5,78.1667 122.5,79.5C 122.5,81.8333 122.5,84.1667 122.5,86.5C 122.083,83.8411 121.083,81.5078 119.5,79.5C 119.5,72.8333 119.5,66.1667 119.5,59.5C 119.56,58.9569 119.893,58.6236 120.5,58.5C 121.167,64.3195 121.833,69.9861 122.5,75.5 Z"/></g>
<g><path style="opacity:0.957" fill="#9b7f64" d="M 182.5,66.5 C 182.5,67.5 182.5,68.5 182.5,69.5C 183.5,69.5 184.5,69.5 185.5,69.5C 184.221,72.6519 181.888,74.6519 178.5,75.5C 178.5,74.5 178.5,73.5 178.5,72.5C 177.5,72.5 176.5,72.5 175.5,72.5C 178.432,71.2003 180.766,69.2003 182.5,66.5 Z"/></g>
<g><path style="opacity:0.942" fill="#b89674" d="M 150.5,63.5 C 150.5,71.8333 150.5,80.1667 150.5,88.5C 150.214,90.9327 149.548,90.9327 148.5,88.5C 148.5,88.1667 148.5,87.8333 148.5,87.5C 149.167,79.5 149.833,71.5 150.5,63.5 Z"/></g>
<g><path style="opacity:0.957" fill="#b99371" d="M 175.5,72.5 C 176.5,72.5 177.5,72.5 178.5,72.5C 178.5,73.5 178.5,74.5 178.5,75.5C 178.167,75.5 177.833,75.5 177.5,75.5C 176.566,76.5676 176.232,77.901 176.5,79.5C 175.833,79.5 175.167,79.5 174.5,79.5C 174.298,77.0504 174.631,74.717 175.5,72.5 Z"/></g>
<g><path style="opacity:0.69" fill="#876e57" d="M 175.5,72.5 C 174.631,74.717 174.298,77.0504 174.5,79.5C 174.5,83.5 174.5,87.5 174.5,91.5C 173.835,88.5185 173.502,85.3518 173.5,82C 173.515,78.4242 174.182,75.2575 175.5,72.5 Z"/></g>
<g><path style="opacity:0.954" fill="#b18f71" d="M 168.5,63.5 C 168.833,63.5 169.167,63.5 169.5,63.5C 169.666,73.1724 169.5,82.8391 169,92.5C 168.722,93.4158 168.222,94.0825 167.5,94.5C 166.215,94.4039 164.881,94.4039 163.5,94.5C 164.63,93.3777 165.297,92.0443 165.5,90.5C 165.5,89.8333 165.5,89.1667 165.5,88.5C 166.479,85.3752 166.813,82.0419 166.5,78.5C 167.302,79.9516 167.802,81.6183 168,83.5C 168.5,76.8417 168.666,70.175 168.5,63.5 Z"/></g>
<g><path style="opacity:0.69" fill="#aa917b" d="M 177.5,75.5 C 177.735,79.7543 177.735,84.0876 177.5,88.5C 176.523,85.7131 176.19,82.7131 176.5,79.5C 176.232,77.901 176.566,76.5676 177.5,75.5 Z"/></g>
<g><path style="opacity:0.951" fill="#b7956d" d="M 112.5,82.5 C 112.736,85.8294 111.903,88.8294 110,91.5C 110.201,88.2228 110.368,84.8895 110.5,81.5C 111.967,78.7417 112.633,79.075 112.5,82.5 Z"/></g>
<g><path style="opacity:0.949" fill="#ba9470" d="M 174.5,79.5 C 175.167,79.5 175.833,79.5 176.5,79.5C 176.19,82.7131 176.523,85.7131 177.5,88.5C 177.5,88.8333 177.5,89.1667 177.5,89.5C 177.179,91.0481 176.179,91.7148 174.5,91.5C 174.5,87.5 174.5,83.5 174.5,79.5 Z"/></g>
<g><path style="opacity:0.937" fill="#b6996e" d="M 119.5,79.5 C 121.083,81.5078 122.083,83.8411 122.5,86.5C 122.357,88.2624 122.691,89.9291 123.5,91.5C 122.575,92.5624 121.575,92.5624 120.5,91.5C 120.495,87.4659 120.162,83.4659 119.5,79.5 Z"/></g>
<g><path style="opacity:0.957" fill="#8c7459" d="M 110.5,72.5 C 110.5,75.5 110.5,78.5 110.5,81.5C 110.368,84.8895 110.201,88.2228 110,91.5C 111.903,88.8294 112.736,85.8294 112.5,82.5C 112.833,82.5 113.167,82.5 113.5,82.5C 114.337,87.6361 113.003,91.9695 109.5,95.5C 108.503,95.5299 107.836,95.0299 107.5,94C 107.989,92.8615 108.322,91.6948 108.5,90.5C 109.037,84.3504 109.704,78.3504 110.5,72.5 Z"/></g>
<g><path style="opacity:0.949" fill="#8c755a" d="M 122.5,79.5 C 123.046,83.8598 124.046,88.1931 125.5,92.5C 124.094,92.9731 123.427,93.9731 123.5,95.5C 121.738,94.7377 120.738,93.4044 120.5,91.5C 121.575,92.5624 122.575,92.5624 123.5,91.5C 122.691,89.9291 122.357,88.2624 122.5,86.5C 122.5,84.1667 122.5,81.8333 122.5,79.5 Z"/></g>
<g><path style="opacity:0.937" fill="#8f745b" d="M 142.5,59.5 C 143.659,69.6584 143.825,79.9917 143,90.5C 142.303,92.5844 141.136,94.2511 139.5,95.5C 137.265,95.7947 135.265,95.4614 133.5,94.5C 136.674,93.1408 138.674,90.8074 139.5,87.5C 139.556,90.517 139.89,90.8503 140.5,88.5C 142.473,79.2245 143.14,69.5578 142.5,59.5 Z"/></g>
<g><path style="opacity:0.973" fill="#9a8266" d="M 147.5,88.5 C 147.833,88.5 148.167,88.5 148.5,88.5C 149.548,90.9327 150.214,90.9327 150.5,88.5C 150.833,88.5 151.167,88.5 151.5,88.5C 152.091,90.8193 153.758,92.8193 156.5,94.5C 156.5,94.8333 156.5,95.1667 156.5,95.5C 156.5,96.5 156.5,97.5 156.5,98.5C 150.7,97.6994 147.7,94.366 147.5,88.5 Z"/></g>
<g><path style="opacity:0.961" fill="#917b60" d="M 108.5,90.5 C 108.322,91.6948 107.989,92.8615 107.5,94C 107.836,95.0299 108.503,95.5299 109.5,95.5C 107.155,98.075 104.155,99.075 100.5,98.5C 100.5,97.1667 100.5,95.8333 100.5,94.5C 103.719,94.2241 106.385,92.8907 108.5,90.5 Z"/></g>
<g><path style="opacity:0.965" fill="#83705c" d="M 165.5,90.5 C 165.297,92.0443 164.63,93.3777 163.5,94.5C 164.881,94.4039 166.215,94.4039 167.5,94.5C 166.198,96.8218 164.198,98.1551 161.5,98.5C 161.804,97.8501 162.137,97.1835 162.5,96.5C 160.604,95.5344 158.604,95.2011 156.5,95.5C 156.5,95.1667 156.5,94.8333 156.5,94.5C 158.199,94.6602 159.866,94.4935 161.5,94C 162.705,92.6244 164.038,91.4577 165.5,90.5 Z"/></g>
<g><path style="opacity:0.973" fill="#a58c6e" d="M 125.5,92.5 C 126.833,93.1667 128.167,93.8333 129.5,94.5C 131.148,95.9265 133.148,96.7599 135.5,97C 134.944,97.3826 134.611,97.8826 134.5,98.5C 131.813,98.6641 129.146,98.4974 126.5,98C 125.058,97.6232 124.058,96.7899 123.5,95.5C 123.427,93.9731 124.094,92.9731 125.5,92.5 Z"/></g>
<g><path style="opacity:0.916" fill="#8b765c" d="M 129.5,94.5 C 130.833,94.5 132.167,94.5 133.5,94.5C 135.265,95.4614 137.265,95.7947 139.5,95.5C 138.341,97.2503 136.674,98.2503 134.5,98.5C 134.611,97.8826 134.944,97.3826 135.5,97C 133.148,96.7599 131.148,95.9265 129.5,94.5 Z"/></g>
<g><path style="opacity:0.941" fill="#b39575" d="M 156.5,95.5 C 158.604,95.2011 160.604,95.5344 162.5,96.5C 162.137,97.1835 161.804,97.8501 161.5,98.5C 159.833,98.5 158.167,98.5 156.5,98.5C 156.5,97.5 156.5,96.5 156.5,95.5 Z"/></g>
<g><path style="opacity:0.984" fill="#9b856a" d="M 177.5,89.5 C 179.154,92.6663 181.821,94.333 185.5,94.5C 185.5,95.8333 185.5,97.1667 185.5,98.5C 180.004,98.9244 176.337,96.5911 174.5,91.5C 176.179,91.7148 177.179,91.0481 177.5,89.5 Z"/></g>
<g><path style="opacity:0.965" fill="#987f68" d="M 182.5,116.5 C 183.833,116.5 185.167,116.5 186.5,116.5C 186.849,119.045 186.016,121.045 184,122.5C 181.408,120.992 180.908,118.992 182.5,116.5 Z"/></g>
<g><path style="opacity:1" fill="#8e755e" d="M 33.5,117.5 C 32.3998,118.558 31.0664,119.392 29.5,120C 30.056,120.383 30.3893,120.883 30.5,121.5C 27.9931,121.632 27.3264,122.632 28.5,124.5C 26.1861,123.821 25.8528,122.488 27.5,120.5C 26.675,119.614 25.675,119.281 24.5,119.5C 24.5,121.5 24.5,123.5 24.5,125.5C 24.5,131.167 24.5,136.833 24.5,142.5C 24.5,143.5 24.5,144.5 24.5,145.5C 25.5,145.5 26.5,145.5 27.5,145.5C 26.4324,146.434 25.099,146.768 23.5,146.5C 23.5,137.167 23.5,127.833 23.5,118.5C 26.8067,117.949 30.1401,117.616 33.5,117.5 Z"/></g>
<g><path style="opacity:0.98" fill="#b8997a" d="M 33.5,117.5 C 34.1667,117.833 34.8333,118.167 35.5,118.5C 36.5669,120.879 35.5669,121.879 32.5,121.5C 31.8333,121.5 31.1667,121.5 30.5,121.5C 30.3893,120.883 30.056,120.383 29.5,120C 31.0664,119.392 32.3998,118.558 33.5,117.5 Z"/></g>
<g><path style="opacity:0.965" fill="#928065" d="M 243.5,116.5 C 247.138,115.737 248.638,117.07 248,120.5C 243.421,122.418 241.921,121.085 243.5,116.5 Z"/></g>
<g><path style="opacity:0.953" fill="#b99871" d="M 28.5,124.5 C 27.6314,126.717 27.298,129.05 27.5,131.5C 26.9851,129.249 25.9851,127.249 24.5,125.5C 24.5,123.5 24.5,121.5 24.5,119.5C 25.675,119.281 26.675,119.614 27.5,120.5C 25.8528,122.488 26.1861,123.821 28.5,124.5 Z"/></g>
<g><path style="opacity:0.994" fill="#836f5a" d="M 35.5,118.5 C 38.089,118.461 40.089,119.461 41.5,121.5C 39.5168,121.157 38.1834,121.824 37.5,123.5C 35.6943,122.976 34.0276,122.309 32.5,121.5C 35.5669,121.879 36.5669,120.879 35.5,118.5 Z"/></g>
<g><path style="opacity:0.941" fill="#8d7358" d="M 147.5,118.5 C 145.076,118.192 142.743,118.526 140.5,119.5C 141.949,120.172 143.282,120.839 144.5,121.5C 142.708,121.366 141.042,121.699 139.5,122.5C 138.9,121.1 137.9,120.1 136.5,119.5C 138.29,118.003 140.456,117.336 143,117.5C 144.707,117.508 146.207,117.842 147.5,118.5 Z"/></g>
<g><path style="opacity:0.929" fill="#9e846a" d="M 147.5,118.5 C 148.5,118.5 149.5,118.5 150.5,118.5C 150.697,123.974 148.697,124.974 144.5,121.5C 143.282,120.839 141.949,120.172 140.5,119.5C 142.743,118.526 145.076,118.192 147.5,118.5 Z"/></g>
<g><path style="opacity:0.957" fill="#967f63" d="M 136.5,119.5 C 137.9,120.1 138.9,121.1 139.5,122.5C 137.469,123.539 136.136,125.205 135.5,127.5C 136.108,125.316 135.441,123.316 133.5,121.5C 133.973,120.094 134.973,119.427 136.5,119.5 Z"/></g>
<g><path style="opacity:0.953" fill="#967d66" d="M 133.5,121.5 C 135.441,123.316 136.108,125.316 135.5,127.5C 134.612,130.054 134.279,132.721 134.5,135.5C 134.167,135.5 133.833,135.5 133.5,135.5C 133.82,132.102 133.487,128.768 132.5,125.5C 131.818,126.243 131.151,126.909 130.5,127.5C 130.461,124.911 131.461,122.911 133.5,121.5 Z"/></g>
<g><path style="opacity:0.929" fill="#a98b6a" d="M 49.5,140.5 C 48.6762,136.688 48.1762,132.688 48,128.5C 47.6174,129.056 47.1174,129.389 46.5,129.5C 46.5,124.833 46.5,120.167 46.5,115.5C 47.4959,115.586 48.3292,115.252 49,114.5C 49.4998,123.16 49.6664,131.827 49.5,140.5 Z"/></g>
<g><path style="opacity:0.967" fill="#84725d" d="M 96.5,125.5 C 99.2869,124.523 102.287,124.19 105.5,124.5C 105.5,125.833 105.5,127.167 105.5,128.5C 103.167,128.5 100.833,128.5 98.5,128.5C 99.7175,127.839 101.051,127.172 102.5,126.5C 100.604,125.534 98.604,125.201 96.5,125.5 Z"/></g>
<g><path style="opacity:0.976" fill="#927e66" d="M 247.5,125.5 C 246.209,125.263 245.209,125.596 244.5,126.5C 244.715,128.179 244.048,129.179 242.5,129.5C 240.052,128.527 237.385,128.194 234.5,128.5C 234.167,128.5 233.833,128.5 233.5,128.5C 232.833,128.5 232.167,128.5 231.5,128.5C 231.577,127.25 232.244,126.417 233.5,126C 233.272,125.601 232.938,125.435 232.5,125.5C 235.625,124.521 238.958,124.187 242.5,124.5C 242.351,125.552 242.517,126.552 243,127.5C 243.531,123.469 245.031,122.803 247.5,125.5 Z"/></g>
<g><path style="opacity:0.965" fill="#9a8164" d="M 68.5,145.5 C 68.5,141.167 68.5,136.833 68.5,132.5C 67.5,132.5 66.5,132.5 65.5,132.5C 64.9717,131.279 64.305,130.113 63.5,129C 60.854,128.503 58.1873,128.336 55.5,128.5C 55.33,127.178 55.6634,126.011 56.5,125C 66.9123,122.412 71.2456,126.412 69.5,137C 69.4978,140.021 69.1644,142.854 68.5,145.5 Z"/></g>
<g><path style="opacity:0.931" fill="#7f6854" d="M 118.5,125.5 C 115.753,125.187 113.086,125.52 110.5,126.5C 112.631,127.169 114.631,127.835 116.5,128.5C 114.801,128.34 113.134,128.506 111.5,129C 110.316,130.145 110.316,131.312 111.5,132.5C 109.903,131.263 108.737,129.596 108,127.5C 107.617,128.056 107.117,128.389 106.5,128.5C 106.574,126.589 107.574,125.422 109.5,125C 112.696,124.195 115.696,124.362 118.5,125.5 Z"/></g>
<g><path style="opacity:0.945" fill="#99846b" d="M 118.5,125.5 C 119.573,126.251 119.74,127.251 119,128.5C 118.23,129.598 117.397,129.598 116.5,128.5C 114.631,127.835 112.631,127.169 110.5,126.5C 113.086,125.52 115.753,125.187 118.5,125.5 Z"/></g>
<g><path style="opacity:0.986" fill="#b69473" d="M 191.5,126.5 C 191.5,126.167 191.5,125.833 191.5,125.5C 191.833,125.5 192.167,125.5 192.5,125.5C 195.572,125.183 198.572,125.516 201.5,126.5C 199.031,127.168 196.698,127.835 194.5,128.5C 194.167,128.5 193.833,128.5 193.5,128.5C 193.5,127.167 192.833,126.5 191.5,126.5 Z"/></g>
<g><path style="opacity:0.949" fill="#867460" d="M 192.5,125.5 C 195.64,124.359 198.973,124.192 202.5,125C 203.942,125.377 204.942,126.21 205.5,127.5C 203.692,128.918 203.025,130.918 203.5,133.5C 202.792,131.622 201.626,129.955 200,128.5C 198.224,129.536 196.391,129.536 194.5,128.5C 196.698,127.835 199.031,127.168 201.5,126.5C 198.572,125.516 195.572,125.183 192.5,125.5 Z"/></g>
<g><path style="opacity:0.961" fill="#9c836b" d="M 225.5,129.5 C 224.5,129.5 223.5,129.5 222.5,129.5C 222.768,131.099 222.434,132.432 221.5,133.5C 221.714,131.856 221.38,130.356 220.5,129C 217.901,128.231 215.401,128.398 213,129.5C 211.635,128.407 211.301,127.074 212,125.5C 215.409,124.378 218.909,124.211 222.5,125C 224.141,126.129 225.141,127.629 225.5,129.5 Z"/></g>
<g><path style="opacity:0.931" fill="#a48567" d="M 41.5,121.5 C 44.4971,126.185 43.8304,130.185 39.5,133.5C 37.1759,133.123 36.5092,132.123 37.5,130.5C 38.6861,128.126 38.6861,125.792 37.5,123.5C 38.1834,121.824 39.5168,121.157 41.5,121.5 Z"/></g>
<g><path style="opacity:0.91" fill="#847158" d="M 85.5,125.5 C 83.396,125.201 81.396,125.534 79.5,126.5C 80.9492,127.172 82.2825,127.839 83.5,128.5C 79.6897,127.976 77.6897,129.643 77.5,133.5C 76.3922,132.177 76.3922,130.677 77.5,129C 77.1639,127.97 76.4972,127.47 75.5,127.5C 76.0577,126.21 77.0577,125.377 78.5,125C 81.0385,124.204 83.3718,124.371 85.5,125.5 Z"/></g>
<g><path style="opacity:0.957" fill="#b69671" d="M 191.5,126.5 C 192.833,126.5 193.5,127.167 193.5,128.5C 193.829,134.206 193.495,139.872 192.5,145.5C 191.504,139.202 191.17,132.868 191.5,126.5 Z"/></g>
<g><path style="opacity:0.965" fill="#937a63" d="M 257.5,133.5 C 255.62,133.229 254.287,133.896 253.5,135.5C 252.5,135.167 251.833,134.5 251.5,133.5C 253.722,133.441 254.722,132.275 254.5,130C 254.613,128.301 253.947,127.134 252.5,126.5C 256.278,124.036 260.278,123.87 264.5,126C 263.809,127.067 263.309,128.234 263,129.5C 260.619,128.565 258.119,128.232 255.5,128.5C 255.392,130.514 256.058,132.18 257.5,133.5 Z"/></g>
<g><path style="opacity:0.992" fill="#bc946a" d="M 24.5,125.5 C 25.9851,127.249 26.9851,129.249 27.5,131.5C 27.5,131.833 27.5,132.167 27.5,132.5C 27.5,133.5 27.5,134.5 27.5,135.5C 27.0826,138.159 26.0826,140.492 24.5,142.5C 24.5,136.833 24.5,131.167 24.5,125.5 Z"/></g>
<g><path style="opacity:0.965" fill="#9b7d60" d="M 85.5,125.5 C 87.8333,125.833 89.1667,127.167 89.5,129.5C 88.5655,130.568 88.2322,131.901 88.5,133.5C 87.5,133.5 86.5,133.5 85.5,133.5C 85.6085,131.486 84.9418,129.82 83.5,128.5C 82.2825,127.839 80.9492,127.172 79.5,126.5C 81.396,125.534 83.396,125.201 85.5,125.5 Z"/></g>
<g><path style="opacity:0.952" fill="#ae967b" d="M 168.5,145.5 C 168.167,145.5 167.833,145.5 167.5,145.5C 167.5,144.833 167.5,144.167 167.5,143.5C 167.666,138.156 167.499,132.823 167,127.5C 166.617,128.056 166.117,128.389 165.5,128.5C 165.5,127.5 165.5,126.5 165.5,125.5C 166.5,125.5 167.5,125.5 168.5,125.5C 168.5,132.167 168.5,138.833 168.5,145.5 Z"/></g>
<g><path style="opacity:0.945" fill="#b99570" d="M 185.5,126.5 C 185.5,132.167 185.5,137.833 185.5,143.5C 184.186,141.085 183.519,138.252 183.5,135C 183.519,131.748 184.186,128.915 185.5,126.5 Z"/></g>
<g><path style="opacity:0.961" fill="#b7966c" d="M 205.5,127.5 C 205.666,131.514 205.499,135.514 205,139.5C 204.617,138.944 204.117,138.611 203.5,138.5C 203.5,136.833 203.5,135.167 203.5,133.5C 203.025,130.918 203.692,128.918 205.5,127.5 Z"/></g>
<g><path style="opacity:0.927" fill="#9d8b78" d="M 244.5,126.5 C 245.209,125.596 246.209,125.263 247.5,125.5C 248.478,125.811 249.145,126.478 249.5,127.5C 248.752,131.157 248.085,134.823 247.5,138.5C 247.131,134.232 246.131,130.232 244.5,126.5 Z"/></g>
<g><path style="opacity:0.937" fill="#b69673" d="M 231.5,128.5 C 232.167,128.5 232.833,128.5 233.5,128.5C 233.5,134.167 233.5,139.833 233.5,145.5C 232.5,145.5 231.5,145.5 230.5,145.5C 231.407,139.894 231.74,134.227 231.5,128.5 Z"/></g>
<g><path style="opacity:0.91" fill="#b99370" d="M 49.5,140.5 C 49.5,141.167 49.8333,141.5 50.5,141.5C 50.6198,144.205 49.6198,144.872 47.5,143.5C 46.5067,138.88 46.1734,134.214 46.5,129.5C 47.1174,129.389 47.6174,129.056 48,128.5C 48.1762,132.688 48.6762,136.688 49.5,140.5 Z"/></g>
<g><path style="opacity:0.922" fill="#9b8563" d="M 111.5,132.5 C 112.167,132.5 112.5,132.833 112.5,133.5C 112.179,135.048 111.179,135.715 109.5,135.5C 106.41,134.335 105.076,132.002 105.5,128.5C 105.833,128.5 106.167,128.5 106.5,128.5C 107.117,128.389 107.617,128.056 108,127.5C 108.737,129.596 109.903,131.263 111.5,132.5 Z"/></g>
<g><path style="opacity:0.418" fill="#594b3e" d="M 156.5,139.5 C 155.833,139.5 155.5,139.167 155.5,138.5C 155.5,134.167 155.5,129.833 155.5,125.5C 154.5,125.5 153.5,125.5 152.5,125.5C 152.5,129.5 152.5,133.5 152.5,137.5C 152.5,138.167 152.5,138.833 152.5,139.5C 151.513,134.695 151.179,129.695 151.5,124.5C 153.167,124.5 154.833,124.5 156.5,124.5C 156.5,129.5 156.5,134.5 156.5,139.5 Z"/></g>
<g><path style="opacity:0.918" fill="#b79574" d="M 155.5,138.5 C 154.883,138.611 154.383,138.944 154,139.5C 153.722,138.584 153.222,137.918 152.5,137.5C 152.5,133.5 152.5,129.5 152.5,125.5C 153.5,125.5 154.5,125.5 155.5,125.5C 155.5,129.833 155.5,134.167 155.5,138.5 Z"/></g>
<g><path style="opacity:0.966" fill="#b8966d" d="M 167.5,143.5 C 166.508,143.672 165.842,143.338 165.5,142.5C 165.5,137.833 165.5,133.167 165.5,128.5C 166.117,128.389 166.617,128.056 167,127.5C 167.499,132.823 167.666,138.156 167.5,143.5 Z"/></g>
<g><path style="opacity:0.907" fill="#8b735a" d="M 177.5,141.5 C 178.397,142.598 179.23,142.598 180,141.5C 180.494,143.134 180.66,144.801 180.5,146.5C 177.039,146.854 174.539,145.521 173,142.5C 172.5,133.506 172.334,124.506 172.5,115.5C 173.93,115.579 175.264,115.246 176.5,114.5C 177.498,123.475 177.832,132.475 177.5,141.5 Z"/></g>
<g><path style="opacity:0.933" fill="#ba966a" d="M 94.5,128.5 C 95.8086,130.571 96.4752,133.071 96.5,136C 96.4752,138.929 95.8086,141.429 94.5,143.5C 94.5,138.5 94.5,133.5 94.5,128.5 Z"/></g>
<g><path style="opacity:0.898" fill="#a58b6f" d="M 95.5,125.5 C 95.8333,125.5 96.1667,125.5 96.5,125.5C 98.604,125.201 100.604,125.534 102.5,126.5C 101.051,127.172 99.7175,127.839 98.5,128.5C 97.9052,133.823 97.5719,139.489 97.5,145.5C 95.8212,145.715 94.8212,145.048 94.5,143.5C 95.8086,141.429 96.4752,138.929 96.5,136C 96.4752,133.071 95.8086,130.571 94.5,128.5C 94.5569,127.391 94.8902,126.391 95.5,125.5 Z"/></g>
<g><path style="opacity:0.941" fill="#b69671" d="M 177.5,141.5 C 177.721,142.735 178.388,143.735 179.5,144.5C 179.167,144.833 178.833,145.167 178.5,145.5C 177.5,144.833 176.5,144.167 175.5,143.5C 174.337,137.863 174.17,132.196 175,126.5C 176.115,131.507 176.948,136.507 177.5,141.5 Z"/></g>
<g><path style="opacity:0.901" fill="#a8937b" d="M 182.5,125.5 C 183.791,125.263 184.791,125.596 185.5,126.5C 184.186,128.915 183.519,131.748 183.5,135C 183.519,138.252 184.186,141.085 185.5,143.5C 185.179,145.048 184.179,145.715 182.5,145.5C 182.356,139.057 182.356,132.39 182.5,125.5 Z"/></g>
<g><path style="opacity:0.945" fill="#947b5f" d="M 225.5,129.5 C 226.815,134.68 226.815,140.014 225.5,145.5C 221.701,146.793 218.034,146.793 214.5,145.5C 215.167,145.5 215.833,145.5 216.5,145.5C 219.127,144.908 221.794,144.575 224.5,144.5C 224.666,140.486 224.499,136.486 224,132.5C 223.501,136.152 223.335,139.818 223.5,143.5C 221.167,143.5 218.833,143.5 216.5,143.5C 216.5,143.167 216.5,142.833 216.5,142.5C 218.167,142.5 219.833,142.5 221.5,142.5C 221.5,140.5 221.5,138.5 221.5,136.5C 220.391,135.71 219.058,135.21 217.5,135C 219.058,134.79 220.391,134.29 221.5,133.5C 222.434,132.432 222.768,131.099 222.5,129.5C 223.5,129.5 224.5,129.5 225.5,129.5 Z"/></g>
<g><path style="opacity:0.929" fill="#a2876b" d="M 252.5,126.5 C 253.947,127.134 254.613,128.301 254.5,130C 254.722,132.275 253.722,133.441 251.5,133.5C 250.853,132.726 250.52,131.726 250.5,130.5C 250.34,128.645 251.007,127.312 252.5,126.5 Z"/></g>
<g><path style="opacity:0.953" fill="#b99a69" d="M 77.5,136.5 C 77.5,136.833 77.5,137.167 77.5,137.5C 76.2921,138.234 74.9587,138.567 73.5,138.5C 73.5,136.5 73.5,134.5 73.5,132.5C 74.2216,132.082 74.7216,131.416 75,130.5C 75.0023,133.051 75.8356,135.051 77.5,136.5 Z"/></g>
<g><path style="opacity:0.243" fill="#524534" d="M 168.5,145.5 C 168.5,138.833 168.5,132.167 168.5,125.5C 167.5,125.5 166.5,125.5 165.5,125.5C 165.5,126.5 165.5,127.5 165.5,128.5C 165.5,133.167 165.5,137.833 165.5,142.5C 165.167,142.5 164.833,142.5 164.5,142.5C 164.5,136.5 164.5,130.5 164.5,124.5C 166.167,124.5 167.833,124.5 169.5,124.5C 169.825,131.687 169.491,138.687 168.5,145.5 Z"/></g>
<g><path style="opacity:1" fill="#b19674" d="M 27.5,132.5 C 30.2469,132.187 32.9135,132.52 35.5,133.5C 34.7573,134.182 34.0906,134.849 33.5,135.5C 31.5,135.5 29.5,135.5 27.5,135.5C 27.5,134.5 27.5,133.5 27.5,132.5 Z"/></g>
<g><path style="opacity:0.937" fill="#907255" d="M 37.5,130.5 C 36.5092,132.123 37.1759,133.123 39.5,133.5C 37.8984,135.074 35.8984,135.741 33.5,135.5C 34.0906,134.849 34.7573,134.182 35.5,133.5C 32.9135,132.52 30.2469,132.187 27.5,132.5C 27.5,132.167 27.5,131.833 27.5,131.5C 30.9023,131.658 34.2356,131.324 37.5,130.5 Z"/></g>
<g><path style="opacity:0.965" fill="#a88a6a" d="M 133.5,135.5 C 132.778,135.082 132.278,134.416 132,133.5C 131.51,135.545 131.677,137.545 132.5,139.5C 131.833,139.167 131.167,138.833 130.5,138.5C 129.213,134.732 129.213,131.065 130.5,127.5C 131.151,126.909 131.818,126.243 132.5,125.5C 133.487,128.768 133.82,132.102 133.5,135.5 Z"/></g>
<g><path style="opacity:0.983" fill="#b8966e" d="M 244.5,126.5 C 246.131,130.232 247.131,134.232 247.5,138.5C 247.5,140.833 247.5,143.167 247.5,145.5C 246.5,145.5 245.5,145.5 244.5,145.5C 244.821,140.305 244.487,135.305 243.5,130.5C 242.833,130.5 242.5,130.167 242.5,129.5C 244.048,129.179 244.715,128.179 244.5,126.5 Z"/></g>
<g><path style="opacity:0.904" fill="#b29474" d="M 75.5,127.5 C 76.4972,127.47 77.1639,127.97 77.5,129C 76.3922,130.677 76.3922,132.177 77.5,133.5C 80.1667,133.5 82.8333,133.5 85.5,133.5C 86.5,133.5 87.5,133.5 88.5,133.5C 85.7967,135.11 82.7967,136.11 79.5,136.5C 78.8333,136.5 78.1667,136.5 77.5,136.5C 75.8356,135.051 75.0023,133.051 75,130.5C 74.7216,131.416 74.2216,132.082 73.5,132.5C 73.5,131.833 73.5,131.167 73.5,130.5C 73.427,128.973 74.0937,127.973 75.5,127.5 Z"/></g>
<g><path style="opacity:0.944" fill="#947b64" d="M 221.5,133.5 C 220.391,134.29 219.058,134.79 217.5,135C 219.058,135.21 220.391,135.71 221.5,136.5C 219.379,136.325 217.379,136.659 215.5,137.5C 214.533,136.194 213.199,135.527 211.5,135.5C 214.412,132.94 217.745,132.274 221.5,133.5 Z"/></g>
<g><path style="opacity:0.937" fill="#8e7460" d="M 232.5,125.5 C 232.938,125.435 233.272,125.601 233.5,126C 232.244,126.417 231.577,127.25 231.5,128.5C 231.74,134.227 231.407,139.894 230.5,145.5C 229.509,139.021 229.176,132.354 229.5,125.5C 230.5,125.5 231.5,125.5 232.5,125.5 Z"/></g>
<g><path style="opacity:0.918" fill="#987f64" d="M 64.5,133.5 C 65.1098,134.391 65.4431,135.391 65.5,136.5C 62.4867,136.107 59.8201,136.774 57.5,138.5C 57.6463,136.058 56.813,135.391 55,136.5C 55.0643,138.956 54.8977,141.289 54.5,143.5C 51.421,136.887 53.7543,133.22 61.5,132.5C 62.5837,132.685 63.5837,133.018 64.5,133.5 Z"/></g>
<g><path style="opacity:0.89" fill="#a68f7b" d="M 89.5,129.5 C 90.2161,131.556 90.8828,133.723 91.5,136C 87.5138,136.499 83.5138,136.666 79.5,136.5C 82.7967,136.11 85.7967,135.11 88.5,133.5C 88.2322,131.901 88.5655,130.568 89.5,129.5 Z"/></g>
<g><path style="opacity:0.984" fill="#967e64" d="M 112.5,133.5 C 114.553,133.402 116.22,134.069 117.5,135.5C 115.952,135.821 115.285,136.821 115.5,138.5C 113.181,138.008 111.181,137.008 109.5,135.5C 111.179,135.715 112.179,135.048 112.5,133.5 Z"/></g>
<g><path style="opacity:0.91" fill="#b99571" d="M 57.5,138.5 C 56.2947,139.672 56.2947,141.005 57.5,142.5C 56.675,143.386 55.675,143.719 54.5,143.5C 54.8977,141.289 55.0643,138.956 55,136.5C 56.813,135.391 57.6463,136.058 57.5,138.5 Z"/></g>
<g><path style="opacity:0.447" fill="#645346" d="M 233.5,128.5 C 233.833,128.5 234.167,128.5 234.5,128.5C 234.5,134.5 234.5,140.5 234.5,146.5C 232.901,146.768 231.568,146.434 230.5,145.5C 231.5,145.5 232.5,145.5 233.5,145.5C 233.5,139.833 233.5,134.167 233.5,128.5 Z"/></g>
<g><path style="opacity:0.984" fill="#a88b6d" d="M 257.5,133.5 C 261.14,133.475 263.473,135.142 264.5,138.5C 263.837,140.042 263.17,141.709 262.5,143.5C 261.999,141.345 260.999,139.678 259.5,138.5C 257.181,138.008 255.181,137.008 253.5,135.5C 254.287,133.896 255.62,133.229 257.5,133.5 Z"/></g>
<g><path style="opacity:0.459" fill="#615347" d="M 182.5,145.5 C 184.179,145.715 185.179,145.048 185.5,143.5C 185.5,137.833 185.5,132.167 185.5,126.5C 184.791,125.596 183.791,125.263 182.5,125.5C 183.078,123.557 184.078,123.223 185.5,124.5C 186.497,131.803 186.831,139.137 186.5,146.5C 184.901,146.768 183.568,146.434 182.5,145.5 Z"/></g>
<g><path style="opacity:0.931" fill="#b2926d" d="M 65.5,132.5 C 66.5,132.5 67.5,132.5 68.5,132.5C 68.5,136.833 68.5,141.167 68.5,145.5C 68.1667,145.5 67.8333,145.5 67.5,145.5C 64.7531,145.813 62.0865,145.48 59.5,144.5C 61.6309,143.831 63.6309,143.165 65.5,142.5C 65.5,140.5 65.5,138.5 65.5,136.5C 65.4431,135.391 65.1098,134.391 64.5,133.5C 65.1667,133.5 65.5,133.167 65.5,132.5 Z"/></g>
<g><path style="opacity:0.698" fill="#816e55" d="M 95.5,125.5 C 94.8902,126.391 94.5569,127.391 94.5,128.5C 94.5,133.5 94.5,138.5 94.5,143.5C 94.8212,145.048 95.8212,145.715 97.5,145.5C 96.4324,146.434 95.099,146.768 93.5,146.5C 92.8721,139.087 93.5388,132.087 95.5,125.5 Z"/></g>
<g><path style="opacity:0.978" fill="#a78663" d="M 133.5,135.5 C 133.833,135.5 134.167,135.5 134.5,135.5C 135.466,138.794 137.466,141.128 140.5,142.5C 138.784,142.629 137.117,142.962 135.5,143.5C 134.974,141.77 133.974,140.436 132.5,139.5C 131.677,137.545 131.51,135.545 132,133.5C 132.278,134.416 132.778,135.082 133.5,135.5 Z"/></g>
<g><path style="opacity:0.474" fill="#7c6a59" d="M 206.5,129.5 C 207.311,133.835 207.978,138.335 208.5,143C 207.991,146.367 206.324,147.201 203.5,145.5C 204.5,145.5 205.5,145.5 206.5,145.5C 206.5,140.167 206.5,134.833 206.5,129.5 Z"/></g>
<g><path style="opacity:0.945" fill="#b8956e" d="M 216.5,145.5 C 216.5,144.833 216.5,144.167 216.5,143.5C 218.833,143.5 221.167,143.5 223.5,143.5C 223.335,139.818 223.501,136.152 224,132.5C 224.499,136.486 224.666,140.486 224.5,144.5C 221.794,144.575 219.127,144.908 216.5,145.5 Z"/></g>
<g><path style="opacity:0.954" fill="#b39575" d="M 205.5,127.5 C 206.338,127.842 206.672,128.508 206.5,129.5C 206.5,134.833 206.5,140.167 206.5,145.5C 205.5,145.5 204.5,145.5 203.5,145.5C 203.5,143.167 203.5,140.833 203.5,138.5C 204.117,138.611 204.617,138.944 205,139.5C 205.499,135.514 205.666,131.514 205.5,127.5 Z"/></g>
<g><path style="opacity:0.933" fill="#ab8f6f" d="M 211.5,135.5 C 213.199,135.527 214.533,136.194 215.5,137.5C 213.977,139.586 214.31,141.252 216.5,142.5C 216.5,142.833 216.5,143.167 216.5,143.5C 216.5,144.167 216.5,144.833 216.5,145.5C 215.833,145.5 215.167,145.5 214.5,145.5C 214.167,145.5 213.833,145.5 213.5,145.5C 211.701,142.495 211.034,139.162 211.5,135.5 Z"/></g>
<g><path style="opacity:0.674" fill="#826c52" d="M 243.5,130.5 C 244.487,135.305 244.821,140.305 244.5,145.5C 245.5,145.5 246.5,145.5 247.5,145.5C 246.432,146.434 245.099,146.768 243.5,146.5C 243.5,141.167 243.5,135.833 243.5,130.5 Z"/></g>
<g><path style="opacity:0.973" fill="#a38870" d="M 130.5,138.5 C 131.167,138.833 131.833,139.167 132.5,139.5C 133.974,140.436 134.974,141.77 135.5,143.5C 136.167,144.167 136.833,144.833 137.5,145.5C 137.095,146.55 136.429,146.55 135.5,145.5C 133.077,143.635 131.411,141.302 130.5,138.5 Z"/></g>
<g><path style="opacity:0.918" fill="#856f5a" d="M 211.5,135.5 C 211.034,139.162 211.701,142.495 213.5,145.5C 210.862,144.758 209.529,142.925 209.5,140C 209.525,138.124 210.191,136.624 211.5,135.5 Z"/></g>
<g><path style="opacity:0.008" fill="#fefffe" d="M 256.5,140.5 C 257.833,141.167 257.833,141.167 256.5,140.5 Z"/></g>
<g><path style="opacity:0.949" fill="#b0946c" d="M 117.5,135.5 C 118.5,135.833 119.167,136.5 119.5,137.5C 119.5,139.167 119.5,140.833 119.5,142.5C 118.5,142.5 117.5,142.5 116.5,142.5C 116.737,141.209 116.404,140.209 115.5,139.5C 115.5,139.167 115.5,138.833 115.5,138.5C 115.285,136.821 115.952,135.821 117.5,135.5 Z"/></g>
<g><path style="opacity:0.973" fill="#978063" d="M 73.5,130.5 C 73.5,131.167 73.5,131.833 73.5,132.5C 73.5,134.5 73.5,136.5 73.5,138.5C 74.9587,138.567 76.2921,138.234 77.5,137.5C 77.1367,139.911 78.1367,141.411 80.5,142C 83.3315,142.212 85.9982,142.379 88.5,142.5C 90.0224,144.156 89.689,145.323 87.5,146C 75.1821,147.522 70.5155,142.355 73.5,130.5 Z"/></g>
<g><path style="opacity:0.682" fill="#816f5e" d="M 191.5,125.5 C 191.5,125.833 191.5,126.167 191.5,126.5C 191.17,132.868 191.504,139.202 192.5,145.5C 193.495,139.872 193.829,134.206 193.5,128.5C 193.833,128.5 194.167,128.5 194.5,128.5C 194.653,134.349 194.653,140.349 194.5,146.5C 193.167,146.5 191.833,146.5 190.5,146.5C 190.175,139.313 190.509,132.313 191.5,125.5 Z"/></g>
<g><path style="opacity:0.961" fill="#85715a" d="M 57.5,138.5 C 57.5394,139.583 57.8728,140.583 58.5,141.5C 60.7427,142.474 63.076,142.808 65.5,142.5C 63.6309,143.165 61.6309,143.831 59.5,144.5C 62.0865,145.48 64.7531,145.813 67.5,145.5C 64.3601,146.641 61.0267,146.808 57.5,146C 56.0577,145.623 55.0577,144.79 54.5,143.5C 55.675,143.719 56.675,143.386 57.5,142.5C 56.2947,141.005 56.2947,139.672 57.5,138.5 Z"/></g>
<g><path style="opacity:0.973" fill="#89755b" d="M 119.5,137.5 C 121.391,141.259 120.391,144.092 116.5,146C 113.5,146.667 110.5,146.667 107.5,146C 105.893,144.951 105.227,143.451 105.5,141.5C 108.786,142.207 112.119,142.54 115.5,142.5C 115.5,141.5 115.5,140.5 115.5,139.5C 116.404,140.209 116.737,141.209 116.5,142.5C 117.5,142.5 118.5,142.5 119.5,142.5C 119.5,140.833 119.5,139.167 119.5,137.5 Z"/></g>
<g><path style="opacity:1" fill="#a08a71" d="M 137.5,145.5 C 136.833,144.833 136.167,144.167 135.5,143.5C 137.117,142.962 138.784,142.629 140.5,142.5C 143.219,142.603 145.885,142.269 148.5,141.5C 149.91,141.868 150.91,142.701 151.5,144C 147.062,147.453 142.395,147.953 137.5,145.5 Z"/></g>
<g><path style="opacity:0.969" fill="#998166" d="M 152.5,137.5 C 153.222,137.918 153.722,138.584 154,139.5C 154.383,138.944 154.883,138.611 155.5,138.5C 155.5,139.167 155.833,139.5 156.5,139.5C 158.391,142.172 161.058,143.172 164.5,142.5C 162.958,143.163 161.291,143.83 159.5,144.5C 161.743,145.474 164.076,145.808 166.5,145.5C 162.592,146.798 158.592,146.632 154.5,145C 153.139,143.416 152.472,141.582 152.5,139.5C 152.5,138.833 152.5,138.167 152.5,137.5 Z"/></g>
<g><path style="opacity:0.984" fill="#8e775f" d="M 259.5,138.5 C 260.999,139.678 261.999,141.345 262.5,143.5C 263.17,141.709 263.837,140.042 264.5,138.5C 265.905,144.276 263.405,146.943 257,146.5C 254.109,146.74 251.609,145.907 249.5,144C 249.998,142.842 250.831,142.009 252,141.5C 254.453,142.493 256.953,142.66 259.5,142C 260.684,140.855 260.684,139.688 259.5,138.5 Z"/></g>
<g><path style="opacity:0.918" fill="#af9b82" d="M 27.5,135.5 C 27.8366,138.656 27.8366,141.989 27.5,145.5C 26.5,145.5 25.5,145.5 24.5,145.5C 24.5,144.5 24.5,143.5 24.5,142.5C 26.0826,140.492 27.0826,138.159 27.5,135.5 Z"/></g>
<g><path style="opacity:0.925" fill="#8f7963" d="M 46.5,115.5 C 46.5,120.167 46.5,124.833 46.5,129.5C 46.1734,134.214 46.5067,138.88 47.5,143.5C 49.6198,144.872 50.6198,144.205 50.5,141.5C 52.2132,142.635 52.8799,144.302 52.5,146.5C 50.0637,146.683 47.897,146.016 46,144.5C 45.1754,134.658 45.342,124.991 46.5,115.5 Z"/></g>
<g><path style="opacity:0.98" fill="#b49672" d="M 164.5,142.5 C 164.833,142.5 165.167,142.5 165.5,142.5C 165.842,143.338 166.508,143.672 167.5,143.5C 167.5,144.167 167.5,144.833 167.5,145.5C 167.167,145.5 166.833,145.5 166.5,145.5C 164.076,145.808 161.743,145.474 159.5,144.5C 161.291,143.83 162.958,143.163 164.5,142.5 Z"/></g>
</svg>
